<mxfile host="Electron" modified="2024-11-15T14:33:42.824Z" agent="Mozilla/5.0 (Windows NT 10.0; Win64; x64) AppleWebKit/537.36 (KHTML, like Gecko) draw.io/21.6.8 Chrome/114.0.5735.289 Electron/25.5.0 Safari/537.36" etag="oP_stPAX6hKeUAb2eseK" version="21.6.8" type="device">
  <diagram name="Seite-1" id="Uwl_NtpabLYd0y0vUep5">
    <mxGraphModel dx="1419" dy="952" grid="1" gridSize="10" guides="1" tooltips="1" connect="1" arrows="1" fold="1" page="1" pageScale="1" pageWidth="827" pageHeight="1169" math="0" shadow="0">
      <root>
        <mxCell id="0" />
        <mxCell id="1" parent="0" />
        <mxCell id="N6CW8p5gnii61tIS2IyJ-32" value="User" style="swimlane;fontStyle=0;childLayout=stackLayout;horizontal=1;startSize=30;horizontalStack=0;resizeParent=1;resizeParentMax=0;resizeLast=0;collapsible=1;marginBottom=0;whiteSpace=wrap;html=1;" vertex="1" parent="1">
          <mxGeometry x="330" y="270" width="140" height="120" as="geometry" />
        </mxCell>
        <mxCell id="N6CW8p5gnii61tIS2IyJ-33" value="singUp" style="text;strokeColor=none;fillColor=none;align=left;verticalAlign=middle;spacingLeft=4;spacingRight=4;overflow=hidden;points=[[0,0.5],[1,0.5]];portConstraint=eastwest;rotatable=0;whiteSpace=wrap;html=1;" vertex="1" parent="N6CW8p5gnii61tIS2IyJ-32">
          <mxGeometry y="30" width="140" height="30" as="geometry" />
        </mxCell>
        <mxCell id="N6CW8p5gnii61tIS2IyJ-34" value="singIn" style="text;strokeColor=none;fillColor=none;align=left;verticalAlign=middle;spacingLeft=4;spacingRight=4;overflow=hidden;points=[[0,0.5],[1,0.5]];portConstraint=eastwest;rotatable=0;whiteSpace=wrap;html=1;" vertex="1" parent="N6CW8p5gnii61tIS2IyJ-32">
          <mxGeometry y="60" width="140" height="30" as="geometry" />
        </mxCell>
        <mxCell id="N6CW8p5gnii61tIS2IyJ-35" value="block" style="text;strokeColor=none;fillColor=none;align=left;verticalAlign=middle;spacingLeft=4;spacingRight=4;overflow=hidden;points=[[0,0.5],[1,0.5]];portConstraint=eastwest;rotatable=0;whiteSpace=wrap;html=1;" vertex="1" parent="N6CW8p5gnii61tIS2IyJ-32">
          <mxGeometry y="90" width="140" height="30" as="geometry" />
        </mxCell>
        <mxCell id="N6CW8p5gnii61tIS2IyJ-40" style="edgeStyle=orthogonalEdgeStyle;rounded=0;orthogonalLoop=1;jettySize=auto;html=1;exitX=0;exitY=0.5;exitDx=0;exitDy=0;entryX=1;entryY=0.5;entryDx=0;entryDy=0;endArrow=ERone;endFill=0;startArrow=ERmany;startFill=0;" edge="1" parent="1" source="N6CW8p5gnii61tIS2IyJ-36" target="N6CW8p5gnii61tIS2IyJ-33">
          <mxGeometry relative="1" as="geometry" />
        </mxCell>
        <mxCell id="N6CW8p5gnii61tIS2IyJ-36" value="Highscore" style="swimlane;fontStyle=0;childLayout=stackLayout;horizontal=1;startSize=30;horizontalStack=0;resizeParent=1;resizeParentMax=0;resizeLast=0;collapsible=1;marginBottom=0;whiteSpace=wrap;html=1;" vertex="1" parent="1">
          <mxGeometry x="540" y="290" width="144" height="60" as="geometry" />
        </mxCell>
        <mxCell id="N6CW8p5gnii61tIS2IyJ-37" value="score" style="text;strokeColor=none;fillColor=none;align=left;verticalAlign=middle;spacingLeft=4;spacingRight=4;overflow=hidden;points=[[0,0.5],[1,0.5]];portConstraint=eastwest;rotatable=0;whiteSpace=wrap;html=1;" vertex="1" parent="N6CW8p5gnii61tIS2IyJ-36">
          <mxGeometry y="30" width="144" height="30" as="geometry" />
        </mxCell>
        <mxCell id="N6CW8p5gnii61tIS2IyJ-44" style="edgeStyle=orthogonalEdgeStyle;rounded=0;orthogonalLoop=1;jettySize=auto;html=1;exitX=1;exitY=0.25;exitDx=0;exitDy=0;entryX=0;entryY=0.25;entryDx=0;entryDy=0;endArrow=ERmany;endFill=0;startArrow=ERmany;startFill=0;" edge="1" parent="1" source="N6CW8p5gnii61tIS2IyJ-41" target="N6CW8p5gnii61tIS2IyJ-32">
          <mxGeometry relative="1" as="geometry" />
        </mxCell>
        <mxCell id="N6CW8p5gnii61tIS2IyJ-41" value="role" style="swimlane;fontStyle=0;childLayout=stackLayout;horizontal=1;startSize=30;horizontalStack=0;resizeParent=1;resizeParentMax=0;resizeLast=0;collapsible=1;marginBottom=0;whiteSpace=wrap;html=1;" vertex="1" parent="1">
          <mxGeometry x="130" y="275" width="144" height="90" as="geometry" />
        </mxCell>
        <mxCell id="N6CW8p5gnii61tIS2IyJ-42" value="admin" style="text;strokeColor=none;fillColor=none;align=left;verticalAlign=middle;spacingLeft=4;spacingRight=4;overflow=hidden;points=[[0,0.5],[1,0.5]];portConstraint=eastwest;rotatable=0;whiteSpace=wrap;html=1;" vertex="1" parent="N6CW8p5gnii61tIS2IyJ-41">
          <mxGeometry y="30" width="144" height="30" as="geometry" />
        </mxCell>
        <mxCell id="N6CW8p5gnii61tIS2IyJ-43" value="user" style="text;strokeColor=none;fillColor=none;align=left;verticalAlign=middle;spacingLeft=4;spacingRight=4;overflow=hidden;points=[[0,0.5],[1,0.5]];portConstraint=eastwest;rotatable=0;whiteSpace=wrap;html=1;" vertex="1" parent="N6CW8p5gnii61tIS2IyJ-41">
          <mxGeometry y="60" width="144" height="30" as="geometry" />
        </mxCell>
      </root>
    </mxGraphModel>
  </diagram>
</mxfile>
